# xmcd
#
# Track frame offsets: 
#        150
#        18384
#        35031
#        51870
#        70350
#        82701
#        102109
#        119884
#        139289
#        152549
#        166353
#
# Disc length: 2429 seconds
#
# Revision: 0
# Processed by: cddbd v1.5.2PL0 Copyright (c) Steve Scherf et al.
# Submitted via: ExactAudioCopy v0.95b3
#
DISCID=92097b0b
DTITLE=Gary Allan - Icon
DYEAR=2012
DGENRE=Country
TTITLE0=Watching Airplanes
TTITLE1=Man To Man
TTITLE2=Life Ain't Always Beautiful
TTITLE3=Best I Ever Had
TTITLE4=Her Man
TTITLE5=Smoke Rings In The Dark
TTITLE6=Tough Little Boys
TTITLE7=The One
TTITLE8=It Would Be You
TTITLE9=Right Where I Need To Be
TTITLE10=Nothing On But The Radio
EXTD=
EXTT0=
EXTT1=
EXTT2=
EXTT3=
EXTT4=
EXTT5=
EXTT6=
EXTT7=
EXTT8=
EXTT9=
EXTT10=
PLAYORDER=
